<?xml version="1.0" encoding="UTF-8" standalone="no"?>
<svg width="960px" height="600px" viewBox="0 0 960 600" version="1.1" xmlns="http://www.w3.org/2000/svg" xmlns:xlink="http://www.w3.org/1999/xlink" xmlns:sketch="http://www.bohemiancoding.com/sketch/ns">
    <!-- Generator: Sketch 3.3.2 (12043) - http://www.bohemiancoding.com/sketch -->
    <title>placeholder-hero</title>
    <desc>Created with Sketch.</desc>
    <defs></defs>
    <g id="General" stroke="none" stroke-width="1" fill="none" fill-rule="evenodd" sketch:type="MSPage">
        <g id="placeholder-hero" sketch:type="MSArtboardGroup">
            <g id="camera-L-+-LOADING" sketch:type="MSLayerGroup" transform="translate(443.000000, 268.000000)">
                <path d="M47.567937,8.396533 L55.998272,8.396533 C58.210864,8.396533 60,10.18696 60,12.395564 L60,32.000968 C60,34.210127 58.208365,35.999999 55.998272,35.999999 L18.001728,35.999999 C15.789136,35.999999 14,34.209572 14,32.000968 L14,12.395564 C14,10.186405 15.791635,8.396533 18.001728,8.396533 L26.728823,8.396533 L31.301031,2.787113 C31.650305,2.358605 32.378533,2.01438 32.93074,2.01438 L40.97584,2.01438 C41.517992,2.01438 42.272728,2.353365 42.639132,2.771524 L47.567937,8.396533 L47.567937,8.396533 Z M48.580637,6.396533 L57.99281,6.396533 C60.205732,6.396533 62,8.188558 62,10.399134 L62,33.997399 C62,36.21031 60.20592,38 57.99281,38 L16.00719,38 C13.794268,38 12,36.207975 12,33.997399 L12,10.399134 C12,8.186223 13.79408,6.396533 16.00719,6.396533 L25.358024,6.396533 C25.38968,6.347199 25.424684,6.297208 25.463085,6.246664 L29.004961,1.584817 C29.670519,0.708804 31.105633,0 32.211638,0 L41.298144,0 C42.400898,0 43.873106,0.692727 44.579152,1.547249 L48.493068,6.284233 C48.524265,6.32199 48.553448,6.359439 48.580637,6.396533 L48.580637,6.396533 L48.580637,6.396533 Z M15.915816,3.237114 L15.915816,5.237114 L22.915816,5.237114 L22.915816,3.237114 L15.915816,3.237114 L15.915816,3.237114 Z M36.915816,33.237114 C42.990948,33.237114 47.915816,28.312246 47.915816,22.237114 C47.915816,16.161981 42.990948,11.237114 36.915816,11.237114 C30.840683,11.237114 25.915816,16.161981 25.915816,22.237114 C25.915816,28.312246 30.840683,33.237114 36.915816,33.237114 L36.915816,33.237114 Z M36.915816,30.237114 C41.334094,30.237114 44.915816,26.655392 44.915816,22.237114 C44.915816,17.818835 41.334094,14.237114 36.915816,14.237114 C32.497538,14.237114 28.915816,17.818835 28.915816,22.237114 C28.915816,26.655392 32.497538,30.237114 36.915816,30.237114 L36.915816,30.237114 Z M50,11 L50,13 L52,13 L52,11 L50,11 L50,11 Z" id="camera-L" fill="#E4E6DC" sketch:type="MSShapeGroup"></path>
                <text id="LOADING" sketch:type="MSTextLayer" font-family="Helvetica Neue" font-size="12" font-weight="420" letter-spacing="3" fill="#DCDCDC">
                    <tspan x="0" y="63">LOADING</tspan>
                </text>
            </g>
        </g>
    </g>
</svg>