<?xml version="1.0" encoding="utf-8"?>
<!-- Generator: Adobe Illustrator 16.0.4, SVG Export Plug-In . SVG Version: 6.00 Build 0)  -->
<!DOCTYPE svg PUBLIC "-//W3C//DTD SVG 1.1//EN" "http://www.w3.org/Graphics/SVG/1.1/DTD/svg11.dtd">
<svg version="1.1" id="Layer_1" xmlns="http://www.w3.org/2000/svg" xmlns:xlink="http://www.w3.org/1999/xlink" x="0px" y="0px"
	 width="242.169px" height="359.182px" viewBox="0 0 242.169 359.182" enable-background="new 0 0 242.169 359.182"
	 xml:space="preserve">
<g>
	<g>
		<g>
			<defs>
				<rect id="SVGID_1_" y="112.715" width="42.436" height="59.723"/>
			</defs>
			<clipPath id="SVGID_2_">
				<use xlink:href="#SVGID_1_"  overflow="visible"/>
			</clipPath>
			<g clip-path="url(#SVGID_2_)">
				<defs>
					<path id="SVGID_3_" d="M42.437,136.764c0,13.055-0.583,35.666-11.194,35.666c-15.961,0-31.241-17.26-31.241-35.666
						c0-29.094,12.609-23.641,23.222-23.641C33.834,113.123,42.437,123.709,42.437,136.764"/>
				</defs>
				<clipPath id="SVGID_4_">
					<use xlink:href="#SVGID_3_"  overflow="visible"/>
				</clipPath>
				
					<linearGradient id="SVGID_5_" gradientUnits="userSpaceOnUse" x1="-287.5679" y1="2019.6641" x2="-285.5635" y2="2019.6641" gradientTransform="matrix(62.7528 0 0 -62.7528 18010.8906 126879.6406)">
					<stop  offset="0" style="stop-color:#FFFFFF"/>
					<stop  offset="1" style="stop-color:#FDD0B1"/>
				</linearGradient>
				<rect x="0.001" y="107.67" clip-path="url(#SVGID_4_)" fill="url(#SVGID_5_)" width="42.436" height="64.76"/>
			</g>
		</g>
	</g>
	<g>
		<g>
			<defs>
				<rect id="SVGID_6_" x="10.029" y="119.512" width="30.396" height="42.682"/>
			</defs>
			<clipPath id="SVGID_7_">
				<use xlink:href="#SVGID_6_"  overflow="visible"/>
			</clipPath>
			<g clip-path="url(#SVGID_7_)">
				<defs>
					<path id="SVGID_8_" d="M40.425,139.59c0,8.967-5.905,22.611-13.192,22.611c-12.637,0-17.203-24.332-17.203-38.65
						c0-8.965,9.917-0.195,17.203-0.195C34.52,123.355,40.425,130.623,40.425,139.59"/>
				</defs>
				<clipPath id="SVGID_9_">
					<use xlink:href="#SVGID_8_"  overflow="visible"/>
				</clipPath>
				
					<linearGradient id="SVGID_10_" gradientUnits="userSpaceOnUse" x1="-278.501" y1="2038.3369" x2="-276.4945" y2="2038.3369" gradientTransform="matrix(0 63.1263 63.1263 0 -128647.4219 17665.2266)">
					<stop  offset="0" style="stop-color:#FFFFFF"/>
					<stop  offset="1" style="stop-color:#FEE4CD"/>
				</linearGradient>
				<rect x="10.029" y="114.586" clip-path="url(#SVGID_9_)" fill="url(#SVGID_10_)" width="30.396" height="47.617"/>
			</g>
		</g>
	</g>
	<g>
		<g>
			<defs>
				<rect id="SVGID_11_" x="199.731" y="112.715" width="42.438" height="57.699"/>
			</defs>
			<clipPath id="SVGID_12_">
				<use xlink:href="#SVGID_11_"  overflow="visible"/>
			</clipPath>
			<g clip-path="url(#SVGID_12_)">
				<defs>
					<path id="SVGID_13_" d="M242.169,136.764c0,18.406-15.283,33.66-31.242,33.66c-10.611,0-11.195-20.605-11.195-33.66
						s8.602-23.641,19.213-23.641S242.169,107.67,242.169,136.764"/>
				</defs>
				<clipPath id="SVGID_14_">
					<use xlink:href="#SVGID_13_"  overflow="visible"/>
				</clipPath>
				
					<linearGradient id="SVGID_15_" gradientUnits="userSpaceOnUse" x1="-285.9741" y1="2019.6719" x2="-283.9698" y2="2019.6719" gradientTransform="matrix(62.7528 0 0 -62.7528 18110.5469 126879.1406)">
					<stop  offset="0" style="stop-color:#FFFFFF"/>
					<stop  offset="1" style="stop-color:#FDD0B1"/>
				</linearGradient>
				<rect x="199.731" y="107.67" clip-path="url(#SVGID_14_)" fill="url(#SVGID_15_)" width="42.438" height="62.754"/>
			</g>
		</g>
	</g>
	<g>
		<g>
			<defs>
				<rect id="SVGID_16_" x="201.735" y="119.512" width="30.408" height="42.701"/>
			</defs>
			<clipPath id="SVGID_17_">
				<use xlink:href="#SVGID_16_"  overflow="visible"/>
			</clipPath>
			<g clip-path="url(#SVGID_17_)">
				<defs>
					<path id="SVGID_18_" d="M232.144,123.549c0,14.32-4.568,38.66-17.209,38.66c-7.287,0-13.199-13.652-13.199-22.621
						c0-8.971,5.912-16.242,13.199-16.242S232.144,114.578,232.144,123.549"/>
				</defs>
				<clipPath id="SVGID_19_">
					<use xlink:href="#SVGID_18_"  overflow="visible"/>
				</clipPath>
				
					<linearGradient id="SVGID_20_" gradientUnits="userSpaceOnUse" x1="-278.4966" y1="2039.8701" x2="-276.4927" y2="2039.8701" gradientTransform="matrix(0 63.1437 63.1437 0 -128587.9844 17669.7344)">
					<stop  offset="0" style="stop-color:#FFFFFF"/>
					<stop  offset="1" style="stop-color:#FEE4CD"/>
				</linearGradient>
				<rect x="201.735" y="114.578" clip-path="url(#SVGID_19_)" fill="url(#SVGID_20_)" width="30.408" height="47.631"/>
			</g>
		</g>
	</g>
	<g>
		<g>
			<defs>
				<rect id="SVGID_21_" x="67.415" y="232.199" width="107.797" height="126.982"/>
			</defs>
			<clipPath id="SVGID_22_">
				<use xlink:href="#SVGID_21_"  overflow="visible"/>
			</clipPath>
			<g clip-path="url(#SVGID_22_)">
				<defs>
					<path id="SVGID_23_" d="M175.214,232.207v74.479c0,28.99-23.5,52.488-52.486,52.488h-2.826
						c-28.988,0-52.485-23.498-52.485-52.488v-74.479H175.214z"/>
				</defs>
				<clipPath id="SVGID_24_">
					<use xlink:href="#SVGID_23_"  overflow="visible"/>
				</clipPath>
				
					<linearGradient id="SVGID_25_" gradientUnits="userSpaceOnUse" x1="-305.5947" y1="2028.8018" x2="-303.5902" y2="2028.8018" gradientTransform="matrix(0 -73.4032 -73.4032 0 149041.8438 -22027.1016)">
					<stop  offset="0" style="stop-color:#FFFFFF"/>
					<stop  offset="1" style="stop-color:#FDD0B1"/>
				</linearGradient>
				<rect x="67.416" y="232.207" clip-path="url(#SVGID_24_)" fill="url(#SVGID_25_)" width="107.798" height="126.967"/>
			</g>
		</g>
	</g>
	<g>
		<g>
			<defs>
				<rect id="SVGID_26_" x="67.415" y="226.186" width="107.797" height="86.127"/>
			</defs>
			<clipPath id="SVGID_27_">
				<use xlink:href="#SVGID_26_"  overflow="visible"/>
			</clipPath>
			<g clip-path="url(#SVGID_27_)">
				<defs>
					<path id="SVGID_28_" d="M175.214,226.193v42.062l-5.473,7.037c-11.025,16.779-29.73,36.969-49.82,37.008h-0.26
						c-1.062,0-2.666-0.02-4.611-0.078c-19.207-0.604-36.889-19.086-47.634-36.008v-50.021H175.214z"/>
				</defs>
				<clipPath id="SVGID_29_">
					<use xlink:href="#SVGID_28_"  overflow="visible"/>
				</clipPath>
				
					<linearGradient id="SVGID_30_" gradientUnits="userSpaceOnUse" x1="-285.8877" y1="2016.1221" x2="-283.8828" y2="2016.1221" gradientTransform="matrix(53.77 0 0 -53.77 15439.6084 108676.1641)">
					<stop  offset="0" style="stop-color:#FFFFFF"/>
					<stop  offset="1" style="stop-color:#FEE4CD"/>
				</linearGradient>
				<rect x="67.416" y="226.193" clip-path="url(#SVGID_29_)" fill="url(#SVGID_30_)" width="107.798" height="86.107"/>
			</g>
		</g>
	</g>
	<path fill="#FEE4CD" d="M98.987,274.322c-7.42,0-14.59-2.686-20.188-7.561l-28.582-24.883
		c-12.937-11.773-12.692-26.082-14.132-43.514c-0.002-0.025-0.004-0.047-0.006-0.066c-0.921-8.781-13.33-56.434-13.33-66.998
		c0-2.447,0.038-4.893,0.12-7.299c0.121-2.906,0.281-5.793,0.521-8.641c0-0.119,0.019-0.221,0.038-0.32
		c2.626-31.936,12.891-52.536,28.188-74.106c3.308-4.672,6.857-8.802,10.607-12.45c3.528-3.408,7.236-6.375,11.106-8.922
		c14.193-9.442,30.551-13.352,47.975-13.352c18.705,0,36.203,4.511,51.098,15.498l0.025,0.02c2.744,2.024,5.41,4.289,7.979,6.775
		c3.748,3.629,7.295,7.759,10.604,12.431c15.057,21.25,25.26,41.309,28.088,72.663c0.039,0.461,0.082,0.922,0.121,1.383
		c0.219,2.768,0.4,5.555,0.5,8.381c0.1,2.625,0.16,5.273,0.16,7.939c0,11.205-12.449,59.52-13.514,68.982
		c-0.008,0.078-0.016,0.182-0.023,0.309c-1.197,17.707,2.387,32.139-10.809,44.002l-32.254,23.742
		c-5.283,3.889-11.668,5.986-18.227,5.986H98.987z"/>
	<g opacity="0.6">
		<g>
			<defs>
				<rect id="SVGID_31_" x="135.909" y="103.895" width="60.641" height="58.279"/>
			</defs>
			<clipPath id="SVGID_32_">
				<use xlink:href="#SVGID_31_"  overflow="visible"/>
			</clipPath>
			<g clip-path="url(#SVGID_32_)">
				<defs>
					<path id="SVGID_33_" d="M196.548,134.193c0,6.496-27.32,27.971-44.863,27.971s-15.723-42.346-15.723-48.842
						c0-6.497,26.113-9.43,43.654-9.43C197.159,103.893,196.548,127.697,196.548,134.193"/>
				</defs>
				<clipPath id="SVGID_34_">
					<use xlink:href="#SVGID_33_"  overflow="visible"/>
				</clipPath>
				
					<linearGradient id="SVGID_35_" gradientUnits="userSpaceOnUse" x1="-313.624" y1="2024.2861" x2="-311.6193" y2="2024.2861" gradientTransform="matrix(0 -40.0979 -40.0979 0 81335.2812 -12440.2959)">
					<stop  offset="0" style="stop-color:#FFFFFF"/>
					<stop  offset="1" style="stop-color:#F9B7AE"/>
				</linearGradient>
				<rect x="134.142" y="103.893" clip-path="url(#SVGID_34_)" fill="url(#SVGID_35_)" width="63.018" height="58.271"/>
			</g>
		</g>
	</g>
	<g opacity="0.6">
		<g>
			<defs>
				<rect id="SVGID_36_" x="45.131" y="105.638" width="65.327" height="58.261"/>
			</defs>
			<clipPath id="SVGID_37_">
				<use xlink:href="#SVGID_36_"  overflow="visible"/>
			</clipPath>
			<g clip-path="url(#SVGID_37_)">
				<defs>
					<path id="SVGID_38_" d="M45.131,135.934c0,6.496,29.792,27.971,47.335,27.971c17.541,0,17.992-42.346,17.992-48.842
						c0-6.498-28.381-9.431-45.923-9.431S45.131,129.438,45.131,135.934"/>
				</defs>
				<clipPath id="SVGID_39_">
					<use xlink:href="#SVGID_38_"  overflow="visible"/>
				</clipPath>
				
					<linearGradient id="SVGID_40_" gradientUnits="userSpaceOnUse" x1="-313.6465" y1="2041.7324" x2="-311.6418" y2="2041.7324" gradientTransform="matrix(0 -40.0979 40.0979 0 -81791.4062 -12439.4209)">
					<stop  offset="0" style="stop-color:#FFFFFF"/>
					<stop  offset="1" style="stop-color:#F9B7AE"/>
				</linearGradient>
				<rect x="45.131" y="105.633" clip-path="url(#SVGID_39_)" fill="url(#SVGID_40_)" width="65.327" height="58.271"/>
			</g>
		</g>
	</g>
	<g>
		<g>
			<defs>
				<rect id="SVGID_41_" x="105.31" y="92.647" width="33.092" height="92.522"/>
			</defs>
			<clipPath id="SVGID_42_">
				<use xlink:href="#SVGID_41_"  overflow="visible"/>
			</clipPath>
			<g clip-path="url(#SVGID_42_)">
				<defs>
					<path id="SVGID_43_" d="M138.351,168.814c-0.18,5.365,0.34,5.379-3.385,11.473c-3.973,6.498-22.379,6.52-26.385,0.039
						c-3.768-6.102-3.246-6.135-3.246-11.512c0-11.701,3.578-75.93,16.51-76.169C134.806,92.407,138.905,152.557,138.351,168.814"/>
				</defs>
				<clipPath id="SVGID_44_">
					<use xlink:href="#SVGID_43_"  overflow="visible"/>
				</clipPath>
				
					<linearGradient id="SVGID_45_" gradientUnits="userSpaceOnUse" x1="-275.1904" y1="2040.374" x2="-273.1862" y2="2040.374" gradientTransform="matrix(0 51.4173 51.4173 0 -104788.6875 14260.1807)">
					<stop  offset="0" style="stop-color:#FFFFFF"/>
					<stop  offset="1" style="stop-color:#F9B7AE"/>
				</linearGradient>
				<rect x="104.813" y="92.407" clip-path="url(#SVGID_44_)" fill="url(#SVGID_45_)" width="34.092" height="94.399"/>
			</g>
		</g>
	</g>
	<path fill="none" stroke="#3A1B1A" stroke-width="3" stroke-miterlimit="10" d="M50.584,101.786c0,0,23.092-10.039,38.47-11.271"/>
	<path fill="none" stroke="#EACBB1" stroke-linecap="round" stroke-linejoin="round" stroke-miterlimit="10" d="M62.1,131.6
		c0,0,13.882,3.287,22.214-12.127"/>
	<path fill="none" stroke="#EACBB1" stroke-linecap="round" stroke-linejoin="round" stroke-miterlimit="10" d="M57.994,120.188
		c0,0,17.763,8.701,25.579-0.619"/>
	<path fill="none" stroke="#EACBB1" stroke-linecap="round" stroke-linejoin="round" stroke-miterlimit="10" d="M180.526,129.594
		c0,0-13.881,3.287-22.213-12.129"/>
	<path fill="none" stroke="#EACBB1" stroke-linecap="round" stroke-linejoin="round" stroke-miterlimit="10" d="M184.632,118.182
		c0,0-17.76,8.699-25.578-0.617"/>
	
		<line fill="none" stroke="#EACBB1" stroke-linecap="round" stroke-linejoin="round" stroke-miterlimit="10" x1="60.095" y1="118.281" x2="48.579" y2="118.281"/>
	
		<line fill="none" stroke="#EACBB1" stroke-linecap="round" stroke-linejoin="round" stroke-miterlimit="10" x1="49.613" y1="114.271" x2="60.096" y2="118.281"/>
	
		<line fill="none" stroke="#EACBB1" stroke-linecap="round" stroke-linejoin="round" stroke-miterlimit="10" x1="49.613" y1="123.576" x2="60.096" y2="119.85"/>
	
		<line fill="none" stroke="#EACBB1" stroke-linecap="round" stroke-linejoin="round" stroke-miterlimit="10" x1="180.526" y1="114.271" x2="193.21" y2="112.268"/>
	<polygon fill="#3A1B1A" points="26.451,139.102 23.224,145.117 23.224,107.107 28.456,95.079 	"/>
	<polygon fill="#3A1B1A" points="214.935,134.988 219.806,141.107 218.554,107.107 213.321,97.084 	"/>
	<path fill="none" stroke="#3A1B1A" stroke-width="3" stroke-miterlimit="10" d="M195.306,109.806c0,0-23.09-10.039-38.471-11.272"
		/>
	<path fill="#153A39" d="M83.946,117.549c0,5.377-4.355,9.732-9.734,9.732c-5.373,0-9.73-4.355-9.73-9.732
		c0-5.375,4.357-5.723,9.73-5.723C79.591,111.826,83.946,112.174,83.946,117.549"/>
	<path fill="#153A39" d="M176.919,118.35c0,5.375-4.354,9.73-9.732,9.73c-5.373,0-9.732-4.355-9.732-9.73s4.359-5.725,9.732-5.725
		C172.565,112.625,176.919,112.975,176.919,118.35"/>
	<path fill="none" stroke="#EACBB1" stroke-linecap="round" stroke-linejoin="round" stroke-miterlimit="10" d="M156.923,115.127
		c0,0,6.551-8.54,24.258-2.857"/>
	<path fill="none" stroke="#EACBB1" stroke-linecap="round" stroke-linejoin="round" stroke-miterlimit="10" d="M84.919,115.127
		c0,0-6.553-8.54-24.261-2.857"/>
	<path fill="#3A1B1A" d="M22.749,110.185l3.906-46.497c0.396-4.723,1.953-9.266,4.568-13.219c5.53-8.37,16.066-22.859,26.771-29.754
		c37.18-23.944,58.727-20.549,58.727-20.549s53.652,3.007,61.615,14.033s17.287,19.547,21.395,25.562
		c4.111,6.015,13.047,24.058,13.588,30.071c0.547,6.015,6.562,31.954,6.562,31.954l-1.328,5.321l-5.234-5.321l-5.969-11.271V78.854
		l-7.619-15.537l-12.863-16.539l-9.949-18.043l-24.199,1.002l-30.572,12.029l-44.105-2.005l-10.627,9.522L40.427,64.319
		l-8.983,13.226l-2.986,26.625L22.749,110.185z"/>
	<path fill="none" stroke="#D16A5E" stroke-width="3" stroke-linecap="round" stroke-linejoin="round" stroke-miterlimit="10" d="
		M92.575,207.662c0,0,43.105,3.008,60.145-9.021"/>
	<path fill="none" stroke="#EACBB1" stroke-linecap="round" stroke-linejoin="round" stroke-miterlimit="10" d="M116.722,219.691
		c0,0,5.5-3.508,16.99-4.01"/>
	<polygon fill="#3A1B1A" points="67.415,34.75 57.994,49.785 60.096,61.814 72.788,65.824 76.935,63.819 74.38,59.81 72.215,50.287 
		74.214,43.191 78.04,39.762 	"/>
</g>
</svg>
